<?xml version="1.0" encoding="UTF-8" standalone="no"?>
<svg
   width="50"
   height="52"
   viewBox="0 0 50 52"
   version="1.1"
   id="svg1"
   xmlns="http://www.w3.org/2000/svg"
   xmlns:svg="http://www.w3.org/2000/svg">
  <defs
     id="defs1" />
  <title
     id="title1">Logomark</title>
  <path
     d="m 49.626,11.564 a 0.809,0.809 0 0 1 0.028,0.209 v 10.972 a 0.8,0.8 0 0 1 -0.402,0.694 l -9.209,5.302 V 39.25 c 0,0.286 -0.152,0.55 -0.4,0.694 L 20.42,51.01 c -0.044,0.025 -0.092,0.041 -0.14,0.058 -0.018,0.006 -0.035,0.017 -0.054,0.022 a 0.805,0.805 0 0 1 -0.41,0 c -0.022,-0.006 -0.042,-0.018 -0.063,-0.026 -0.044,-0.016 -0.09,-0.03 -0.132,-0.054 L 0.402,39.944 A 0.801,0.801 0 0 1 0,39.25 V 6.334 C 0,6.262 0.01,6.192 0.028,6.124 0.034,6.101 0.048,6.08 0.056,6.057 0.071,6.015 0.085,5.972 0.107,5.933 0.122,5.907 0.144,5.886 0.162,5.862 0.185,5.83 0.206,5.797 0.233,5.769 0.256,5.746 0.286,5.729 0.312,5.709 0.341,5.685 0.367,5.659 0.4,5.64 h 0.001 l 9.61,-5.533 a 0.802,0.802 0 0 1 0.8,0 l 9.61,5.533 h 0.002 c 0.032,0.02 0.059,0.045 0.088,0.068 0.026,0.02 0.055,0.038 0.078,0.06 0.028,0.029 0.048,0.062 0.072,0.094 0.017,0.024 0.04,0.045 0.054,0.071 0.023,0.04 0.036,0.082 0.052,0.124 0.008,0.023 0.022,0.044 0.028,0.068 a 0.809,0.809 0 0 1 0.028,0.209 v 20.559 l 8.008,-4.611 v -10.51 c 0,-0.07 0.01,-0.141 0.028,-0.208 0.007,-0.024 0.02,-0.045 0.028,-0.068 0.016,-0.042 0.03,-0.085 0.052,-0.124 0.015,-0.026 0.037,-0.047 0.054,-0.071 0.024,-0.032 0.044,-0.065 0.072,-0.093 0.023,-0.023 0.052,-0.04 0.078,-0.06 0.03,-0.024 0.056,-0.05 0.088,-0.069 h 10e-4 l 9.611,-5.533 a 0.801,0.801 0 0 1 0.8,0 l 9.61,5.533 c 0.034,0.02 0.06,0.045 0.09,0.068 0.025,0.02 0.054,0.038 0.077,0.06 0.028,0.029 0.048,0.062 0.072,0.094 0.018,0.024 0.04,0.045 0.054,0.071 0.023,0.039 0.036,0.082 0.052,0.124 0.009,0.023 0.022,0.044 0.028,0.068 z m -1.574,10.718 v -9.124 l -3.363,1.936 -4.646,2.675 v 9.124 l 8.01,-4.611 z m -9.61,16.505 v -9.13 l -4.57,2.61 -13.05,7.448 v 9.216 z M 1.602,7.719 V 38.787 L 19.22,48.93 V 39.716 L 10.016,34.507 10.013,34.505 10.009,34.503 C 9.978,34.485 9.952,34.459 9.923,34.437 9.898,34.417 9.869,34.401 9.847,34.379 L 9.845,34.376 C 9.819,34.351 9.801,34.32 9.779,34.292 9.759,34.265 9.735,34.242 9.719,34.214 L 9.718,34.211 C 9.7,34.181 9.689,34.145 9.676,34.111 9.663,34.081 9.646,34.053 9.638,34.021 V 34.02 C 9.628,33.982 9.626,33.942 9.622,33.903 9.618,33.873 9.61,33.843 9.61,33.813 V 33.811 12.33 L 4.965,9.654 1.602,7.72 Z m 8.81,-5.994 -8.007,4.609 8.005,4.609 8.006,-4.61 -8.006,-4.608 z m 4.164,28.764 4.645,-2.674 V 7.719 l -3.363,1.936 -4.646,2.675 v 20.096 z m 24.667,-23.325 -8.006,4.609 8.006,4.609 8.005,-4.61 z m -0.801,10.605 -4.646,-2.675 -3.363,-1.936 v 9.124 l 4.645,2.674 3.364,1.937 z M 20.02,38.33 l 11.743,-6.704 5.87,-3.35 -8,-4.606 -9.211,5.303 -8.395,4.833 z"
     fill="#FF2D20"
     fill-rule="evenodd"
     id="path1"
     style="fill:#4f39f6;fill-opacity:1" />
</svg>
